<svg width="152" height="152" viewBox="0 0 152 152" fill="none" xmlns="http://www.w3.org/2000/svg">
  <path d="M76 8c33.14 0 60 26.86 60 60 0 37.5-43.2 72.8-58 84.1a6 6 0 0 1-4 1.4 6 6 0 0 1-4-1.4C59.2 140.8 16 105.5 16 68 16 34.86 42.86 8 76 8z" fill="#2E8B57"></path>
  <circle cx="76" cy="68" r="32" fill="white"></circle>
  <path d="M64 88c18 0 28-12 28-28-10 4-18 10-22 20-2-6-2-12-1-18-7 6-9 16-5 26z" fill="#66BB6A"></path>
  <path d="M76 56c-6 10-8 20-6 32" stroke="#197419" stroke-width="4" stroke-linecap="round"></path>
</svg>
